<?xml version="1.0" standalone="no"?>
<!DOCTYPE svg PUBLIC "-//W3C//DTD SVG 20010904//EN"
 "http://www.w3.org/TR/2001/REC-SVG-20010904/DTD/svg10.dtd">
<svg version="1.0" xmlns="http://www.w3.org/2000/svg"
 width="300.000000pt" height="300.000000pt" viewBox="0 0 300.000000 300.000000"
 preserveAspectRatio="xMidYMid meet">
<metadata>
Created by potrace 1.11, written by Peter Selinger 2001-2013
</metadata>
<g transform="translate(0.000000,300.000000) scale(0.100000,-0.100000)"
fill="#000000" stroke="none">
<path d="M1413 2557 c-56 -95 -163 -275 -238 -402 -147 -246 -152 -255 -210
-355 -20 -36 -47 -81 -60 -100 -31 -49 -403 -671 -440 -736 -17 -30 -36 -59
-43 -66 -7 -7 -12 -15 -12 -19 0 -4 -64 -112 -141 -240 -78 -129 -150 -247
-159 -264 -10 -16 -27 -47 -40 -67 l-22 -38 44 20 c23 10 140 67 258 125 118
59 260 129 315 155 55 26 302 147 549 269 247 122 455 221 462 221 12 0 165
-91 544 -325 96 -60 186 -115 200 -122 14 -8 37 -22 52 -31 14 -9 64 -40 110
-68 294 -181 398 -243 398 -239 0 3 -35 62 -79 132 -43 71 -160 263 -261 428
-100 165 -190 312 -201 327 -10 15 -19 30 -19 32 0 3 -19 36 -43 73 -37 58
-405 681 -444 753 -8 14 -22 37 -31 52 -9 15 -49 83 -88 150 -118 202 -293
501 -296 504 -2 1 -49 -75 -105 -169z"/>
</g>
</svg>
